<svg xmlns="http://www.w3.org/2000/svg" viewBox="0 0 512 512">
  <rect width="512" height="512" rx="112" fill="#111827"/>
  <path d="M256 84 382 130v96c0 84-49 157-126 202-77-45-126-118-126-202v-96L256 84Z" fill="#F8FAFC"/>
  <path d="M256 128 344 160v69c0 58-33 108-88 143-55-35-88-85-88-143v-69l88-32Z" fill="#0F766E"/>
  <path d="M220 240h72v-31c0-21-14-36-36-36s-36 15-36 36v31Zm-26 0v-31c0-36 25-62 62-62s62 26 62 62v31h12c10 0 18 8 18 18v64c0 10-8 18-18 18H182c-10 0-18-8-18-18v-64c0-10 8-18 18-18h12Z" fill="#F8FAFC"/>
</svg>
